<svg width="26" height="26" viewBox="0 0 26 26" fill="none" xmlns="http://www.w3.org/2000/svg">
<path d="M17.4796 18.8776L13.5671 14.9635C13.4241 14.8205 13.2551 14.7945 13.1641 14.7945C13.0731 14.7945 12.9042 14.8205 12.7612 14.9635L8.83564 18.8906C8.3937 19.3327 7.70478 20.0479 5.40405 20.0479L10.2265 24.8591C10.9576 25.5897 11.9488 26 12.9821 26C14.0155 26 15.0067 25.5897 15.7378 24.8591L20.5732 20.0349C19.3904 20.0349 18.4025 19.8008 17.4796 18.8776ZM8.83564 7.10944L12.7612 11.0365C12.8652 11.1405 13.0211 11.2055 13.1641 11.2055C13.3071 11.2055 13.4631 11.1405 13.5671 11.0365L17.4536 7.14846C18.3765 6.1862 19.4294 5.96514 20.6122 5.96514L15.7768 1.14087C15.0457 0.410334 14.0545 0 13.0211 0C11.9878 0 10.9966 0.410334 10.2655 1.14087L5.44305 5.95214C7.73078 5.95214 8.43269 6.70634 8.83564 7.10944Z" fill="white"/>
<path d="M24.8366 10.2045L21.912 7.26575H20.2742C19.5722 7.26575 18.8703 7.55183 18.3894 8.05896L14.4898 11.96C14.1259 12.3241 13.6449 12.5061 13.164 12.5061C12.6688 12.4992 12.1947 12.3039 11.8382 11.96L7.91262 8.01995C7.41868 7.52582 6.74276 7.23975 6.02785 7.23975H4.11708L1.14043 10.2305C0.410177 10.962 0 11.9535 0 12.9873C0 14.021 0.410177 15.0125 1.14043 15.744L4.11708 18.7348H6.04085C6.74276 18.7348 7.41868 18.4487 7.92562 17.9546L11.8512 14.0275C12.2151 13.6634 12.6961 13.4814 13.177 13.4814C13.6579 13.4814 14.1389 13.6634 14.5028 14.0275L18.4154 17.9416C18.9093 18.4357 19.5852 18.7218 20.3001 18.7218H21.938L24.8626 15.783C25.5959 15.0384 26.0048 14.0337 26 12.9884C25.9951 11.9431 25.5768 10.9423 24.8366 10.2045Z" fill="white"/>
</svg>
